<svg height="512" viewBox="0 0 64 64" width="512" xmlns="http://www.w3.org/2000/svg"><g id="Laptop-Computer-Browser-Wireless-Intenet"><path d="m61.9 54.553-5.9-11.789v-31.764a3 3 0 0 0 -3-3h-1v2h1a1 1 0 0 1 1 1v31h-44v-31a1 1 0 0 1 1-1h1v-2h-1a3 3 0 0 0 -3 3v31.764l-5.895 11.789a1 1 0 0 0 -.105.447v4a3 3 0 0 0 3 3h54a3 3 0 0 0 3-3v-4a1 1 0 0 0 -.1-.447zm-7.518-10.553 5 10h-18.764l-1.718-3.447a1 1 0 0 0 -.9-.553h-12a1 1 0 0 0 -.895.553l-1.723 3.447h-18.764l5-10zm-16 10h-12.764l1-2h10.764zm20.618 6h-54a1 1 0 0 1 -1-1v-3h56v3a1 1 0 0 1 -1 1z"/><path d="m10 50h2v2h-2z"/><path d="m14 50h2v2h-2z"/><path d="m48 50h2v2h-2z"/><path d="m52 50h2v2h-2z"/><path d="m15 46h2v2h-2z"/><path d="m11 46h2v2h-2z"/><path d="m19 46h2v2h-2z"/><path d="m23 46h2v2h-2z"/><path d="m27 46h2v2h-2z"/><path d="m31 46h2v2h-2z"/><path d="m35 46h2v2h-2z"/><path d="m39 46h2v2h-2z"/><path d="m43 46h2v2h-2z"/><path d="m47 46h2v2h-2z"/><path d="m51 46h2v2h-2z"/><path d="m18 50h4v2h-4z"/><path d="m42 50h4v2h-4z"/><path d="m18 6h2v2h-2z"/><path d="m22 6h2v2h-2z"/><path d="m26 6h2v2h-2z"/><path d="m17 32h10.465l3.7 5.555a1 1 0 0 0 1.664 0l3.706-5.555h10.465a3 3 0 0 0 3-3v-24a3 3 0 0 0 -3-3h-30a3 3 0 0 0 -3 3v24a3 3 0 0 0 3 3zm30-2h-11a1 1 0 0 0 -.832.445l-3.168 4.755-3.168-4.752a1 1 0 0 0 -.832-.448h-11a1 1 0 0 1 -1-1v-17h32v17a1 1 0 0 1 -1 1zm-30-26h30a1 1 0 0 1 1 1v5h-32v-5a1 1 0 0 1 1-1z"/><path d="m31 24h2v2h-2z"/><path d="m28.464 21.464 1.414 1.414a3.006 3.006 0 0 1 4.244 0l1.414-1.414a5.008 5.008 0 0 0 -7.072 0z"/><path d="m25.636 18.636 1.414 1.414a7 7 0 0 1 9.9 0l1.414-1.414a9 9 0 0 0 -12.728 0z"/><path d="m44 34h6v2h-6z"/><path d="m40 34h2v2h-2z"/><path d="m40 38h10v2h-10z"/><path d="m18 34h6v2h-6z"/><path d="m14 34h2v2h-2z"/><path d="m14 38h10v2h-10z"/></g></svg>